<svg viewBox="0 0 216 44" xmlns="http://www.w3.org/2000/svg" data-logo="logo">
        <g transform="translate(0, 1.5) rotate(0)" id="logogram" style="opacity: 1;"><path fill="#192657" d="M0.301758 30.08L0.301761 10.08L10.3018 15.6355V24.5799L18.3018 29.08L26.3018 24.5799V15.6355L36.3019 10.08V30.08L18.3018 40.08L0.301758 30.08Z"></path><path fill="url(#paint0_linear_5558_2243)" d="M5.30177 12.8578L0.301758 10.08L18.3018 0.0799561L36.3019 10.08L31.3018 12.8578V27.58L18.3018 35.08L5.30176 27.58L5.30177 12.8578ZM30.7602 13.1587L26.3018 15.6355V15.58L18.3018 11.0799L10.3018 15.58V15.6355L5.84343 13.1587V27.2723L18.3018 34.4598L30.7602 27.2723V13.1587Z" clip-rule="evenodd" fill-rule="evenodd"></path></g>
        <g transform="translate(43, 1)" id="logotype" style="opacity: 1;"><path d="M17.64 34.38L17.64 34.38Q14.58 34.38 12.31 33.44Q10.05 32.50 8.79 30.65Q7.52 28.80 7.45 26.10L7.45 26.10L12.53 26.10Q12.63 27.39 13.30 28.25Q13.96 29.11 15.07 29.54Q16.19 29.97 17.59 29.97L17.59 29.97Q18.99 29.97 20.02 29.57Q21.06 29.16 21.64 28.43Q22.22 27.69 22.22 26.72L22.22 26.72Q22.22 25.85 21.70 25.26Q21.18 24.67 20.20 24.24Q19.23 23.81 17.83 23.49L17.83 23.49L15.02 22.79Q11.79 22.00 9.96 20.32Q8.14 18.64 8.14 15.87L8.14 15.87Q8.14 13.56 9.38 11.83Q10.61 10.11 12.78 9.15Q14.94 8.19 17.71 8.19L17.71 8.19Q20.53 8.19 22.63 9.16Q24.73 10.13 25.91 11.84Q27.09 13.56 27.12 15.80L27.12 15.80L22.08 15.80Q21.94 14.26 20.77 13.42Q19.60 12.59 17.66 12.59L17.66 12.59Q16.34 12.59 15.40 12.96Q14.46 13.34 13.96 14.00Q13.47 14.67 13.47 15.53L13.47 15.53Q13.47 16.47 14.04 17.09Q14.61 17.71 15.54 18.10Q16.48 18.48 17.55 18.74L17.55 18.74L19.86 19.30Q21.47 19.66 22.85 20.28Q24.23 20.89 25.28 21.79Q26.32 22.69 26.89 23.92Q27.46 25.15 27.46 26.75L27.46 26.75Q27.46 29.06 26.30 30.78Q25.14 32.50 22.94 33.44Q20.73 34.38 17.64 34.38ZM36.96 24.48L33.48 28.41L33.48 22.24L34.25 22.24L40.50 14.89L46.43 14.89L38.18 24.48L36.96 24.48ZM33.96 34L28.83 34L28.83 8.54L33.96 8.54L33.96 34ZM46.79 34L40.76 34L35.02 25.63L38.45 21.99L46.79 34ZM51.98 34L46.86 34L46.86 14.89L51.98 14.89L51.98 34ZM49.42 12.40L49.42 12.40Q48.26 12.40 47.44 11.63Q46.62 10.86 46.62 9.77L46.62 9.77Q46.62 8.67 47.44 7.90Q48.26 7.13 49.42 7.13L49.42 7.13Q50.58 7.13 51.41 7.90Q52.24 8.66 52.24 9.77L52.24 9.77Q52.24 10.86 51.41 11.63Q50.58 12.40 49.42 12.40ZM54.07 8.54L59.19 8.54L59.19 34L54.07 34L54.07 8.54ZM61.28 8.54L66.40 8.54L66.40 34L61.28 34L61.28 8.54ZM85.37 34L74.62 34L74.62 8.54L84.72 8.54Q87.52 8.54 89.39 9.38Q91.27 10.23 92.20 11.70Q93.13 13.17 93.13 15.08L93.13 15.08Q93.13 16.59 92.53 17.70Q91.93 18.82 90.90 19.53Q89.86 20.24 88.55 20.55L88.55 20.55L88.55 20.81Q89.98 20.86 91.26 21.62Q92.53 22.38 93.33 23.74Q94.12 25.10 94.12 26.99L94.12 26.99Q94.12 28.99 93.13 30.58Q92.14 32.17 90.20 33.09Q88.26 34 85.37 34L85.37 34ZM79.83 22.81L79.83 29.71L84.34 29.71Q86.63 29.71 87.69 28.82Q88.75 27.93 88.75 26.50L88.75 26.50Q88.75 25.40 88.23 24.57Q87.71 23.75 86.75 23.28Q85.80 22.81 84.48 22.81L84.48 22.81L79.83 22.81ZM79.83 12.79L79.83 19.23L83.95 19.23Q85.06 19.23 85.95 18.83Q86.84 18.43 87.34 17.69Q87.85 16.94 87.85 15.92L87.85 15.92Q87.85 14.53 86.87 13.66Q85.88 12.79 84.05 12.79L84.05 12.79L79.83 12.79ZM100.51 34L95.38 34L95.38 14.89L100.34 14.89L100.34 18.23L100.54 18.23Q101.07 16.45 102.31 15.54Q103.55 14.64 105.16 14.64L105.16 14.64Q105.55 14.64 106.00 14.68Q106.46 14.72 106.82 14.81L106.82 14.81L106.82 19.39Q106.47 19.27 105.82 19.20Q105.18 19.13 104.59 19.13L104.59 19.13Q103.43 19.13 102.49 19.64Q101.55 20.14 101.03 21.04Q100.51 21.93 100.51 23.13L100.51 23.13L100.51 34ZM112.49 34L107.36 34L107.36 14.89L112.49 14.89L112.49 34ZM109.92 12.40L109.92 12.40Q108.76 12.40 107.94 11.63Q107.12 10.86 107.12 9.77L107.12 9.77Q107.12 8.67 107.94 7.90Q108.76 7.13 109.92 7.13L109.92 7.13Q111.09 7.13 111.91 7.90Q112.74 8.66 112.74 9.77L112.74 9.77Q112.74 10.86 111.91 11.63Q111.09 12.40 109.92 12.40ZM121.56 34.32L121.56 34.32Q119.36 34.32 117.59 33.19Q115.82 32.05 114.79 29.86Q113.77 27.66 113.77 24.48L113.77 24.48Q113.77 21.22 114.83 19.03Q115.89 16.84 117.65 15.75Q119.41 14.65 121.53 14.65L121.53 14.65Q123.15 14.65 124.23 15.20Q125.30 15.75 125.97 16.55Q126.64 17.35 126.96 18.11L126.96 18.11L127.13 18.11L127.13 8.54L132.26 8.54L132.26 34L127.22 34L127.22 30.94L126.96 30.94Q126.62 31.71 125.94 32.49Q125.27 33.27 124.19 33.79Q123.12 34.32 121.56 34.32ZM123.13 30.21L123.13 30.21Q124.43 30.21 125.35 29.49Q126.28 28.77 126.76 27.48Q127.23 26.19 127.23 24.46L127.23 24.46Q127.23 22.72 126.76 21.45Q126.29 20.17 125.37 19.47Q124.45 18.76 123.13 18.76L123.13 18.76Q121.78 18.76 120.87 19.49Q119.95 20.23 119.49 21.51Q119.03 22.79 119.03 24.46L119.03 24.46Q119.03 26.14 119.50 27.44Q119.97 28.74 120.89 29.47Q121.80 30.21 123.13 30.21ZM142.83 41.55L142.83 41.55Q140.46 41.55 138.68 40.95Q136.90 40.34 135.79 39.28Q134.68 38.22 134.26 36.87L134.26 36.87L138.67 35.64Q138.90 36.17 139.41 36.67Q139.91 37.18 140.75 37.50Q141.59 37.83 142.82 37.83L142.82 37.83Q144.78 37.83 145.90 36.93Q147.02 36.03 147.02 34.14L147.02 34.14L147.02 30.62L146.63 30.62Q146.29 31.39 145.64 32.10Q144.99 32.82 143.94 33.27Q142.89 33.73 141.33 33.73L141.33 33.73Q139.18 33.73 137.42 32.72Q135.66 31.71 134.61 29.64Q133.56 27.57 133.56 24.41L133.56 24.41Q133.56 21.18 134.62 19.01Q135.69 16.84 137.46 15.75Q139.23 14.65 141.35 14.65L141.35 14.65Q142.95 14.65 144.05 15.19Q145.14 15.73 145.82 16.54Q146.49 17.35 146.83 18.11L146.83 18.11L147.06 18.11L147.06 14.89L152.10 14.89L152.10 33.85Q152.10 36.43 150.91 38.14Q149.72 39.86 147.64 40.71Q145.55 41.55 142.83 41.55ZM142.94 29.83L142.94 29.83Q144.25 29.83 145.17 29.18Q146.08 28.53 146.56 27.31Q147.04 26.09 147.04 24.38L147.04 24.38Q147.04 22.69 146.56 21.42Q146.08 20.16 145.17 19.46Q144.25 18.76 142.94 18.76L142.94 18.76Q141.59 18.76 140.67 19.48Q139.76 20.21 139.29 21.47Q138.82 22.74 138.82 24.38L138.82 24.38Q138.82 26.05 139.29 27.28Q139.76 28.50 140.68 29.16Q141.60 29.83 142.94 29.83ZM162.83 34.38L162.83 34.38Q159.91 34.38 157.79 33.18Q155.67 31.98 154.53 29.78Q153.39 27.57 153.39 24.55L153.39 24.55Q153.39 21.59 154.52 19.37Q155.65 17.15 157.72 15.90Q159.79 14.65 162.57 14.65L162.57 14.65Q164.45 14.65 166.08 15.25Q167.70 15.85 168.93 17.06Q170.16 18.26 170.85 20.07Q171.54 21.88 171.54 24.34L171.54 24.34L171.54 25.78L155.50 25.78L155.50 22.57L169.03 22.57L166.64 23.42Q166.64 21.93 166.19 20.83Q165.73 19.73 164.84 19.12Q163.94 18.52 162.61 18.52L162.61 18.52Q161.29 18.52 160.36 19.13Q159.43 19.75 158.95 20.80Q158.47 21.85 158.47 23.20L158.47 23.20L158.47 25.47Q158.47 27.13 159.03 28.26Q159.58 29.39 160.58 29.95Q161.58 30.51 162.91 30.51L162.91 30.51Q163.82 30.51 164.55 30.26Q165.29 30.00 165.81 29.50Q166.33 28.99 166.60 28.26L166.60 28.26L171.25 29.13Q170.79 30.70 169.65 31.89Q168.50 33.08 166.78 33.73Q165.07 34.38 162.83 34.38Z" fill="#3734d5"></path></g>
        <defs xmlns="http://www.w3.org/2000/svg">
<linearGradient gradientUnits="userSpaceOnUse" y2="7.85774" x2="32.3018" y1="7.85773" x1="5.30176" id="paint0_linear_5558_2243">
<stop stop-color="#64C2DB"></stop>
<stop stop-color="#7476ED" offset="0.307292"></stop>
<stop stop-color="#C994DF" offset="0.604167"></stop>
<stop stop-color="#E56F8C" offset="1"></stop>
</linearGradient>
</defs>
      </svg>